# This file uses centimeters as units for non-parametric coordinates.

mtllib banana.mtl
g default
v 0.492720 0.024203 -0.172321
v 0.494149 0.034228 -0.196482
v 0.495578 0.024203 -0.220642
v 0.496170 0.000000 -0.230650
v 0.495578 -0.024203 -0.220643
v 0.494149 -0.034228 -0.196482
v 0.492720 -0.024203 -0.172321
v 0.492128 0.000000 -0.162313
v 0.434936 0.063269 -0.133711
v 0.432083 0.089476 -0.196916
v 0.429231 0.063269 -0.260120
v 0.428049 0.000000 -0.286300
v 0.429231 -0.063269 -0.260120
v 0.432083 -0.089476 -0.196915
v 0.434936 -0.063269 -0.133711
v 0.436117 0.000000 -0.107531
v 0.350331 0.073291 -0.111831
v 0.340733 0.103552 -0.184254
v 0.331134 0.073291 -0.256678
v 0.327159 0.000234 -0.286676
v 0.331134 -0.072822 -0.256677
v 0.340733 -0.103083 -0.184254
v 0.350331 -0.072822 -0.111831
v 0.354306 0.000234 -0.081832
v -0.096018 0.078118 0.350001
v -0.167686 0.110476 0.342871
v -0.244893 0.078118 0.330970
v -0.276872 0.000000 0.326041
v -0.244893 -0.078118 0.330970
v -0.167686 -0.110476 0.342871
v -0.096018 -0.078118 0.350001
v -0.064013 0.000000 0.354952
v -0.120188 0.067652 0.390209
v -0.173727 0.095675 0.397760
v -0.241231 0.067652 0.393280
v -0.269192 0.000000 0.391424
v -0.241231 -0.067653 0.393280
v -0.173727 -0.095675 0.397760
v -0.120188 -0.067653 0.390209
v -0.092227 0.000000 0.392065
v -0.187076 0.013225 0.440880
v -0.213170 0.024034 0.440805
v -0.239263 0.013225 0.440731
v -0.250072 -0.012869 0.440700
v -0.239263 -0.038962 0.440731
v -0.213170 -0.049771 0.440805
v -0.187076 -0.038962 0.440880
v -0.176268 -0.012869 0.440910
v 0.506408 -0.003839 -0.193906
v -0.162074 -0.004249 0.591405
v -0.193449 -0.000678 0.599949
v -0.191099 -0.012868 0.609624
v -0.224826 -0.004249 0.608493
v -0.237822 -0.012869 0.612033
v -0.224826 -0.021489 0.608493
v -0.193449 -0.025060 0.599949
v -0.162074 -0.021489 0.591405
v -0.149077 -0.012869 0.587865
v -0.235606 -0.012869 0.563181
v -0.225995 -0.003892 0.561424
v -0.202791 -0.000173 0.557185
v -0.179588 -0.003892 0.552945
v -0.169977 -0.012869 0.551189
v -0.179588 -0.021847 0.552945
v -0.202791 -0.025565 0.557185
v -0.225995 -0.021847 0.561424
v -0.247000 -0.012869 0.489888
v -0.236630 0.012226 0.489158
v -0.211597 0.022621 0.487394
v -0.186564 0.012226 0.485632
v -0.176195 -0.012869 0.484902
v -0.186564 -0.037964 0.485631
v -0.211597 -0.048359 0.487394
v -0.236630 -0.037964 0.489158
v -0.257548 0.000000 0.213633
v -0.224810 0.082850 0.223928
v -0.145775 0.117168 0.248780
v -0.066739 0.082851 0.273632
v -0.034001 0.000000 0.283926
v -0.066739 -0.082851 0.273632
v -0.145775 -0.117168 0.248780
v -0.224810 -0.082850 0.223927
v -0.226934 0.000000 0.110400
v -0.193494 0.089488 0.126391
v -0.112761 0.126555 0.164997
v -0.032029 0.089488 0.203603
v 0.001411 0.000000 0.219594
v -0.032029 -0.089488 0.203603
v -0.112761 -0.126555 0.164997
v -0.193494 -0.089488 0.126391
v -0.136407 0.000000 -0.041876
v -0.106492 0.092705 -0.017800
v -0.034273 0.131104 0.040326
v 0.037946 0.092705 0.098452
v 0.067860 0.000000 0.122528
v 0.037946 -0.092705 0.098452
v -0.034273 -0.131104 0.040326
v -0.106492 -0.092705 -0.017800
v -0.005988 0.000000 -0.159442
v 0.016233 0.087142 -0.130997
v 0.069879 0.123238 -0.062325
v 0.123526 0.087142 0.006347
v 0.145747 0.000000 0.034791
v 0.123526 -0.087142 0.006347
v 0.069879 -0.123238 -0.062325
v 0.016233 -0.087142 -0.130997
v 0.153318 0.000000 -0.243607
v 0.166920 0.079732 -0.213512
v 0.199758 0.112758 -0.140856
v 0.232596 0.079732 -0.068201
v 0.246198 0.000000 -0.038106
v 0.232596 -0.079732 -0.068201
v 0.199758 -0.112758 -0.140856
v 0.166920 -0.079732 -0.213512
vt 0.381508 0.044425
vt 0.418617 0.041254
vt 0.413457 0.106400
vt 0.361364 0.106434
vt 0.465029 0.035093
vt 0.465163 0.100998
vt 0.517008 0.032261
vt 0.516735 0.098413
vt 0.568951 0.035544
vt 0.568261 0.101443
vt 0.615294 0.042115
vt 0.619865 0.107301
vt 0.652364 0.045627
vt 0.671903 0.107820
vt 0.676838 0.038774
vt 0.722077 0.091163
vt 0.357104 0.037333
vt 0.311343 0.089264
vt 0.403136 0.180082
vt 0.342942 0.179133
vt 0.460665 0.175515
vt 0.516281 0.173158
vt 0.571919 0.175985
vt 0.629510 0.181043
vt 0.689818 0.180615
vt 0.751016 0.167894
vt 0.281907 0.165868
vt 0.390093 0.297875
vt 0.323638 0.285735
vt 0.454049 0.305150
vt 0.515812 0.307829
vt 0.577576 0.305699
vt 0.641544 0.298992
vt 0.708052 0.287434
vt 0.775544 0.271636
vt 0.256256 0.269386
vt 0.169188 0.709436
vt 0.215142 0.748814
vt 0.185843 0.776563
vt 0.155046 0.744725
vt 0.256097 0.799376
vt 0.213436 0.823463
vt 0.290758 0.855832
vt 0.230882 0.877348
vt 0.733213 0.856975
vt 0.771363 0.802497
vt 0.813531 0.829394
vt 0.788276 0.881438
vt 0.814048 0.753033
vt 0.844372 0.782315
vt 0.859466 0.712484
vt 0.874532 0.747461
vt 0.920721 0.685893
vt 0.929063 0.730286
vt 0.107240 0.685122
vt 0.100132 0.732228
vt 0.155499 0.842039
vt 0.132620 0.823529
vt 0.173719 0.865026
vt 0.184013 0.887798
vt 0.846920 0.858926
vt 0.835035 0.880528
vt 0.864346 0.837220
vt 0.885977 0.819218
vt 0.908474 0.809384
vt 0.109547 0.814620
vt 0.530691 0.729844
vt 0.510258 0.738322
vt 0.507144 0.708318
vt 0.539156 0.709413
vt 0.530706 0.688970
vt 0.510266 0.680471
vt 0.489781 0.688924
vt 0.481293 0.709406
vt 0.489794 0.729874
vt 0.512363 0.770958
vt 0.516708 0.797788
vt 0.504362 0.797927
vt 0.512031 0.824562
vt 0.504122 0.835396
vt 0.496351 0.824463
vt 0.492015 0.797630
vt 0.496703 0.770858
vt 0.504603 0.760023
vt 0.127699 0.868728
vt 0.111913 0.854855
vt 0.139979 0.885896
vt 0.150015 0.904863
vt 0.879488 0.880853
vt 0.868924 0.899576
vt 0.891938 0.863805
vt 0.907562 0.849826
vt 0.925272 0.837926
vt 0.093999 0.843276
vt 0.092513 0.923296
vt 0.098084 0.932156
vt 0.072123 0.961009
vt 0.065473 0.950153
vt 0.081487 0.907383
vt 0.052334 0.927854
vt 0.069381 0.892322
vt 0.038059 0.906353
vt 0.062453 0.884598
vt 0.031054 0.895814
vt 0.950056 0.887286
vt 0.956985 0.879504
vt 0.988358 0.890902
vt 0.981319 0.901430
vt 0.937916 0.902438
vt 0.966989 0.922943
vt 0.926749 0.918366
vt 0.953766 0.945235
vt 0.921085 0.927214
vt 0.947089 0.956085
vt 0.318680 0.741096
vt 0.369921 0.792677
vt 0.262503 0.692920
vt 0.200670 0.651961
vt 0.134466 0.621047
vt 0.827869 0.654823
vt 0.893756 0.623445
vt 0.766315 0.695767
vt 0.709483 0.742786
vt 0.657075 0.793103
vt 0.368426 0.677943
vt 0.433627 0.722078
vt 0.300739 0.635147
vt 0.231420 0.595571
vt 0.159888 0.562785
vt 0.797504 0.598107
vt 0.869084 0.565655
vt 0.728195 0.637216
vt 0.660212 0.679119
vt 0.594541 0.722449
vt 0.428399 0.562416
vt 0.514633 0.588233
vt 0.348964 0.531121
vt 0.272196 0.499709
vt 0.196113 0.470694
vt 0.757597 0.501844
vt 0.833867 0.473456
vt 0.680693 0.532618
vt 0.601065 0.563154
vt 0.445942 0.436347
vt 0.515208 0.444608
vt 0.374187 0.418732
vt 0.301208 0.397484
vt 0.228174 0.375299
vt 0.729518 0.399361
vt 0.802720 0.377806
vt 0.656403 0.419982
vt 0.584532 0.436960
vn 0.709538 0.508568 0.487764
vn 0.694670 0.719045 -0.020187
vn 0.321058 0.946066 -0.043371
vn 0.399072 0.671595 0.624260
vn 0.678542 0.509318 -0.529317
vn 0.246571 0.665148 -0.704827
vn 0.669738 0.000843 -0.742598
vn 0.216152 -0.000401 -0.976360
vn 0.672745 -0.511789 -0.534309
vn 0.244549 -0.666014 -0.704714
vn 0.686659 -0.726666 -0.021377
vn 0.318013 -0.947106 -0.043117
vn 0.704072 -0.511922 0.492158
vn 0.396789 -0.672616 0.624617
vn 0.713822 0.000984 0.700326
vn 0.431750 -0.000431 0.901993
vn 0.077521 0.994891 -0.064664
vn 0.262921 0.724233 0.637463
vn -0.092631 0.681060 -0.726345
vn -0.158462 0.000412 -0.987365
vn -0.092624 -0.680510 -0.726861
vn 0.077759 -0.994848 -0.065048
vn 0.263361 -0.723832 0.637737
vn 0.344216 0.000541 0.938890
vn 0.219007 0.921779 0.319935
vn 0.218891 0.921779 0.320015
vn -0.108057 0.922150 -0.371434
vn -0.107848 0.922151 -0.371492
vn -0.335414 0.381700 -0.861280
vn -0.335110 0.381700 -0.861398
vn -0.334745 -0.381715 -0.861533
vn -0.334882 -0.381715 -0.861480
vn -0.106647 -0.922149 -0.371843
vn -0.106829 -0.922148 -0.371793
vn 0.220230 -0.921617 0.319563
vn 0.220375 -0.921618 0.319460
vn 0.454726 -0.381033 0.805008
vn 0.454917 -0.381034 0.804900
vn 0.454226 0.381089 0.805264
vn 0.454262 0.381089 0.805244
vn 0.635268 0.692720 0.341428
vn -0.068459 0.988823 0.132446
vn -0.002762 0.819076 0.573678
vn 0.522948 0.504553 0.686988
vn -0.728944 0.684341 -0.017804
vn -0.657875 0.662030 0.359049
vn -0.997304 -0.000001 -0.073386
vn -0.979049 0.018625 0.202772
vn -0.728945 -0.684341 -0.017805
vn -0.691243 -0.678099 0.249731
vn -0.068459 -0.988824 0.132443
vn 0.003420 -0.875892 0.482495
vn 0.635269 -0.692719 0.341427
vn 0.556910 -0.521081 0.646781
vn 0.891774 0.000000 0.452481
vn 0.674013 0.011362 0.738632
vn -0.051321 0.553632 0.831178
vn 0.383570 0.308607 0.870422
vn -0.649022 0.483702 0.587199
vn -0.934151 -0.049342 0.353450
vn -0.712691 -0.584887 0.387270
vn -0.092335 -0.740255 0.665956
vn 0.430884 -0.380828 0.818113
vn 0.507900 -0.015357 0.861279
vn 0.997499 -0.018899 0.068103
vn 0.408926 0.378319 0.830454
vn 0.204314 0.632422 0.747193
vn 0.261586 0.000000 0.965180
vn 0.066857 0.382491 0.921537
vn 0.051484 -0.000011 0.998674
vn 0.066874 -0.382475 0.921543
vn 0.204327 -0.632372 0.747233
vn 0.408914 -0.378310 0.830465
vn 0.459807 -0.000017 0.888019
vn 0.383484 0.923415 0.015623
vn 0.383484 0.923415 0.015623
vn 0.338241 0.931084 0.136661
vn 0.335264 0.931046 0.144055
vn -0.381644 0.923430 0.040322
vn -0.381644 0.923430 0.040322
vn -0.298212 0.935738 0.188320
vn -0.301741 0.935767 0.182461
vn -0.922218 0.382326 0.057806
vn -0.922218 0.382326 0.057806
vn -0.885190 0.448657 0.123070
vn -0.887462 0.445118 0.119506
vn -0.922218 -0.382326 0.057806
vn -0.922218 -0.382326 0.057806
vn -0.887464 -0.445113 0.119505
vn -0.885193 -0.448651 0.123069
vn -0.381643 -0.923430 0.040322
vn -0.381643 -0.923430 0.040322
vn -0.301732 -0.935771 0.182456
vn -0.298201 -0.935742 0.188315
vn 0.383484 -0.923415 0.015624
vn 0.383484 -0.923415 0.015624
vn 0.335254 -0.931050 0.144053
vn 0.338232 -0.931087 0.136659
vn 0.924036 -0.382301 -0.001781
vn 0.924036 -0.382301 -0.001781
vn 0.893968 -0.447934 -0.013276
vn 0.896234 -0.443407 -0.012472
vn 0.924036 0.382301 -0.001781
vn 0.924036 0.382301 -0.001781
vn 0.896231 0.443412 -0.012469
vn 0.893966 0.447939 -0.013273
vn -0.791561 0.596399 0.133186
vn -0.778489 0.615817 0.121346
vn -0.614785 0.788685 -0.003776
vn -0.614785 0.788686 -0.003776
vn -0.194979 0.963153 0.185257
vn -0.190238 0.966234 0.173788
vn -0.126744 0.991637 0.024346
vn -0.126744 0.991637 0.024346
vn 0.227625 0.966481 0.118747
vn 0.233589 0.963915 0.127690
vn 0.125218 0.991649 -0.030876
vn 0.125218 0.991649 -0.030876
vn 0.778169 0.618056 -0.111623
vn 0.795660 0.598220 -0.095175
vn 0.548977 0.788631 -0.276922
vn 0.548977 0.788631 -0.276922
vn 0.795671 -0.598205 -0.095178
vn 0.778180 -0.618042 -0.111627
vn 0.549000 -0.788614 -0.276924
vn 0.549000 -0.788614 -0.276924
vn 0.233573 -0.963918 0.127694
vn 0.227610 -0.966484 0.118752
vn 0.125204 -0.991651 -0.030860
vn 0.125204 -0.991651 -0.030860
vn -0.190219 -0.966237 0.173787
vn -0.194961 -0.963156 0.185257
vn -0.126725 -0.991639 0.024355
vn -0.126725 -0.991639 0.024355
vn -0.778502 -0.615799 0.121348
vn -0.791571 -0.596387 0.133185
vn -0.614805 -0.788671 -0.003768
vn -0.614805 -0.788671 -0.003768
vn -0.900319 0.381357 -0.209743
vn -0.900308 0.381357 -0.209791
vn -0.387639 0.920819 -0.042761
vn -0.387641 0.920817 -0.042792
vn 0.340963 0.917249 0.205907
vn 0.341509 0.917199 0.205226
vn 0.833605 0.378992 0.401831
vn 0.834021 0.378974 0.400984
vn 0.834021 -0.378974 0.400984
vn 0.833605 -0.378992 0.401830
vn 0.341510 -0.917198 0.205227
vn 0.340964 -0.917249 0.205908
vn -0.387642 -0.920816 -0.042791
vn -0.387640 -0.920819 -0.042760
vn -0.900308 -0.381357 -0.209791
vn -0.900319 -0.381357 -0.209742
vn -0.833086 0.382741 -0.399345
vn -0.833601 0.382757 -0.398256
vn -0.357783 0.923523 -0.138190
vn -0.358412 0.923516 -0.136598
vn 0.311965 0.921217 0.232461
vn 0.312065 0.921169 0.232517
vn 0.782057 0.380378 0.493660
vn 0.782317 0.380376 0.493250
vn 0.782317 -0.380376 0.493250
vn 0.782056 -0.380378 0.493660
vn 0.312067 -0.921168 0.232518
vn 0.311967 -0.921216 0.232462
vn -0.358414 -0.923515 -0.136599
vn -0.357785 -0.923522 -0.138191
vn -0.833601 -0.382756 -0.398256
vn -0.833087 -0.382741 -0.399345
vn -0.715061 0.383997 -0.584153
vn -0.715038 0.383997 -0.584181
vn -0.289994 0.925284 -0.244445
vn -0.289963 0.925284 -0.244483
vn 0.308415 0.922151 0.233489
vn 0.308414 0.922151 0.233491
vn 0.728840 0.380795 0.569023
vn 0.728833 0.380795 0.569033
vn 0.728833 -0.380795 0.569033
vn 0.728840 -0.380795 0.569023
vn 0.308416 -0.922151 0.233490
vn 0.308416 -0.922151 0.233489
vn -0.289964 -0.925283 -0.244484
vn -0.289995 -0.925283 -0.244446
vn -0.715038 -0.383997 -0.584181
vn -0.715061 -0.383997 -0.584153
vn -0.531676 0.382421 -0.755695
vn -0.531756 0.382421 -0.755639
vn -0.194208 0.922798 -0.332757
vn -0.194313 0.922799 -0.332693
vn 0.283212 0.922001 0.264017
vn 0.283283 0.922002 0.263937
vn 0.621103 0.381608 0.684548
vn 0.621198 0.381608 0.684462
vn 0.621198 -0.381607 0.684462
vn 0.621103 -0.381607 0.684549
vn 0.283283 -0.922002 0.263937
vn 0.283212 -0.922001 0.264016
vn -0.194313 -0.922799 -0.332693
vn -0.194208 -0.922798 -0.332757
vn -0.531756 -0.382420 -0.755639
vn -0.531676 -0.382420 -0.755695
s 1
g banana1
usemtl lambert4SG
f 1/1/1 2/2/2 10/3/3 9/4/4
f 2/2/2 3/5/5 11/6/6 10/3/3
f 3/5/5 4/7/7 12/8/8 11/6/6
f 4/7/7 5/9/9 13/10/10 12/8/8
f 5/9/9 6/11/11 14/12/12 13/10/10
f 6/11/11 7/13/13 15/14/14 14/12/12
f 7/13/13 8/15/15 16/16/16 15/14/14
f 8/17/15 1/1/1 9/4/4 16/18/16
f 9/4/4 10/3/3 18/19/17 17/20/18
f 10/3/3 11/6/6 19/21/19 18/19/17
f 11/6/6 12/8/8 20/22/20 19/21/19
f 12/8/8 13/10/10 21/23/21 20/22/20
f 13/10/10 14/12/12 22/24/22 21/23/21
f 14/12/12 15/14/14 23/25/23 22/24/22
f 15/14/14 16/16/16 24/26/24 23/25/23
f 16/18/16 9/4/4 17/20/18 24/27/24
f 17/20/18 18/19/17 109/28/25 110/29/26
f 18/19/17 19/21/19 108/30/27 109/28/28
f 19/21/19 20/22/20 107/31/29 108/30/30
f 20/22/20 21/23/21 114/32/31 107/31/32
f 21/23/21 22/24/22 113/33/33 114/32/34
f 22/24/22 23/25/23 112/34/35 113/33/36
f 23/25/23 24/26/24 111/35/37 112/34/38
f 24/27/24 17/20/18 110/29/39 111/36/40
f 25/37/41 26/38/42 34/39/43 33/40/44
f 26/38/42 27/41/45 35/42/46 34/39/43
f 27/41/45 28/43/47 36/44/48 35/42/46
f 28/45/47 29/46/49 37/47/50 36/48/48
f 29/46/49 30/49/51 38/50/52 37/47/50
f 30/49/51 31/51/53 39/52/54 38/50/52
f 31/51/53 32/53/55 40/54/56 39/52/54
f 32/55/55 25/37/41 33/40/44 40/56/56
f 33/40/44 34/39/43 42/57/57 41/58/58
f 34/39/43 35/42/46 43/59/59 42/57/57
f 35/42/46 36/44/48 44/60/60 43/59/59
f 36/48/48 37/47/50 45/61/61 44/62/60
f 37/47/50 38/50/52 46/63/62 45/61/61
f 38/50/52 39/52/54 47/64/63 46/63/62
f 39/52/54 40/54/56 48/65/64 47/64/63
f 40/56/56 33/40/44 41/58/58 48/66/64
f 2/67/2 1/68/1 49/69/65
f 3/70/5 2/67/2 49/69/65
f 4/71/7 3/70/5 49/69/65
f 5/72/9 4/71/7 49/69/65
f 6/73/11 5/72/9 49/69/65
f 7/74/13 6/73/11 49/69/65
f 8/75/15 7/74/13 49/69/65
f 1/68/1 8/75/15 49/69/65
s 3
f 50/76/66 51/77/67 52/78/68
f 51/77/67 53/79/69 52/78/68
f 53/79/69 54/80/70 52/78/68
f 54/80/70 55/81/71 52/78/68
f 55/81/71 56/82/72 52/78/68
f 56/82/72 57/83/73 52/78/68
f 57/83/73 58/84/74 52/78/68
f 58/84/74 50/76/66 52/78/68
s 4
f 41/58/75 42/57/76 69/85/77 70/86/78
s 5
f 42/57/79 43/59/80 68/87/81 69/85/82
s 6
f 43/59/83 44/60/84 67/88/85 68/87/86
s 7
f 44/62/87 45/61/88 74/89/89 67/90/90
s 8
f 45/61/91 46/63/92 73/91/93 74/89/94
s 9
f 46/63/95 47/64/96 72/92/97 73/91/98
s 10
f 47/64/99 48/65/100 71/93/101 72/92/102
s 11
f 48/66/103 41/58/104 70/86/105 71/94/106
s 6
f 60/95/107 59/96/108 54/97/109 53/98/110
s 5
f 61/99/111 60/95/112 53/98/113 51/100/114
s 4
f 62/101/115 61/99/116 51/100/117 50/102/118
s 11
f 63/103/119 62/101/120 50/102/121 58/104/122
s 10
f 64/105/123 63/106/124 58/107/125 57/108/126
s 9
f 65/109/127 64/105/128 57/108/129 56/110/130
s 8
f 66/111/131 65/109/132 56/110/133 55/112/134
s 7
f 59/113/135 66/111/136 55/112/137 54/114/138
s 6
f 68/87/86 67/88/85 59/96/108 60/95/107
s 5
f 69/85/82 68/87/81 60/95/112 61/99/111
s 4
f 70/86/78 69/85/77 61/99/116 62/101/115
s 11
f 71/94/106 70/86/105 62/101/120 63/103/119
s 10
f 72/92/102 71/93/101 63/106/124 64/105/123
s 9
f 73/91/98 72/92/97 64/105/128 65/109/127
s 8
f 74/89/94 73/91/93 65/109/132 66/111/131
s 7
f 67/90/90 74/89/89 66/111/136 59/113/135
s 1
f 76/115/139 75/116/140 28/43/47 27/41/45
f 77/117/141 76/115/142 27/41/45 26/38/42
f 78/118/143 77/117/144 26/38/42 25/37/41
f 79/119/145 78/118/146 25/37/41 32/55/55
f 80/120/147 79/121/148 32/53/55 31/51/53
f 81/122/149 80/120/150 31/51/53 30/49/51
f 82/123/151 81/122/152 30/49/51 29/46/49
f 75/124/153 82/123/154 29/46/49 28/45/47
f 84/125/155 83/126/156 75/116/140 76/115/139
f 85/127/157 84/125/158 76/115/142 77/117/141
f 86/128/159 85/127/160 77/117/144 78/118/143
f 87/129/161 86/128/162 78/118/146 79/119/145
f 88/130/163 87/131/164 79/121/148 80/120/147
f 89/132/165 88/130/166 80/120/150 81/122/149
f 90/133/167 89/132/168 81/122/152 82/123/151
f 83/134/169 90/133/170 82/123/154 75/124/153
f 92/135/171 91/136/172 83/126/156 84/125/155
f 93/137/173 92/135/174 84/125/158 85/127/157
f 94/138/175 93/137/176 85/127/160 86/128/159
f 95/139/177 94/138/178 86/128/162 87/129/161
f 96/140/179 95/141/180 87/131/164 88/130/163
f 97/142/181 96/140/182 88/130/166 89/132/165
f 98/143/183 97/142/184 89/132/168 90/133/167
f 91/136/185 98/143/186 90/133/170 83/134/169
f 100/144/187 99/145/188 91/136/172 92/135/171
f 101/146/189 100/144/190 92/135/174 93/137/173
f 102/147/191 101/146/192 93/137/176 94/138/175
f 103/148/193 102/147/194 94/138/178 95/139/177
f 104/149/195 103/150/196 95/141/180 96/140/179
f 105/151/197 104/149/198 96/140/182 97/142/181
f 106/152/199 105/151/200 97/142/184 98/143/183
f 99/145/201 106/152/202 98/143/186 91/136/185
f 108/30/30 107/31/29 99/145/188 100/144/187
f 109/28/28 108/30/27 100/144/190 101/146/189
f 110/29/26 109/28/25 101/146/192 102/147/191
f 111/36/40 110/29/39 102/147/194 103/148/193
f 112/34/38 111/35/37 103/150/196 104/149/195
f 113/33/36 112/34/35 104/149/198 105/151/197
f 114/32/34 113/33/33 105/151/200 106/152/199
f 107/31/32 114/32/31 106/152/202 99/145/201
